<svg width="60" height="60" viewBox="0 0 60 60" fill="none" xmlns="http://www.w3.org/2000/svg">
<g clip-path="url(#clip0_57280_30127)">
<path d="M45.2981 12.7639C46.7194 10.3115 45.9129 7.15478 43.496 5.71252C41.0792 4.27027 37.9682 5.0887 36.5469 7.54112L18.8681 38.0394C17.9897 39.5546 17.5615 41.2946 17.6335 43.0508C17.7037 44.7583 17.287 46.4496 16.433 47.9226L14.3085 51.5879C13.6834 52.6658 14.0385 54.0536 15.1007 54.6879C16.167 55.3244 17.5399 54.959 18.1615 53.8741L20.1765 50.3559C21.0098 48.9009 22.2331 47.7164 23.7047 46.9402L23.9792 46.7954C25.4788 46.0042 26.7283 44.8012 27.5851 43.323L45.2981 12.7639Z" fill="#AECCDC"/>
<path opacity="0.38" d="M16.3887 54.47L14.6722 53.4454C14.4485 53.3122 14.3742 53.0196 14.5055 52.7932L39.6072 9.48837C39.7385 9.26131 40.0268 9.18602 40.25 9.31924L41.9664 10.3439C42.1902 10.4771 42.2644 10.7696 42.1331 10.9961L17.0314 54.3003C16.9001 54.5274 16.6119 54.6027 16.3887 54.4694V54.47Z" fill="white"/>
<path d="M29.9625 29.9168L29.2274 29.4781C29.1315 29.4209 29.008 29.4534 28.9516 29.5507L15.7844 52.2693C15.728 52.3667 15.7601 52.492 15.856 52.5492L16.5911 52.9879C16.687 53.0452 16.8105 53.0127 16.8669 52.9153L30.034 30.1967C30.0905 30.0993 30.0584 29.974 29.9625 29.9168Z" fill="#AD3851"/>
<path d="M35.7546 14.3977L33.6398 13.1357C33.5759 13.0976 33.4937 13.1192 33.4562 13.184L33.1677 13.6818C33.1301 13.7466 33.1514 13.83 33.2153 13.8682L35.3301 15.1302C35.3939 15.1683 35.4761 15.1466 35.5137 15.0818L35.8022 14.5841C35.8397 14.5193 35.8184 14.4358 35.7546 14.3977Z" fill="#2E4661"/>
<path d="M30.6337 23.2324L28.5189 21.9704C28.4551 21.9323 28.3729 21.9539 28.3353 22.0187L28.0468 22.5165C28.0093 22.5813 28.0306 22.6647 28.0944 22.7028L30.2092 23.9648C30.2731 24.0029 30.3553 23.9813 30.3928 23.9165L30.6813 23.4187C30.7189 23.3539 30.6976 23.2705 30.6337 23.2324Z" fill="#2E4661"/>
<path d="M25.5134 32.0673L23.3986 30.8053C23.3347 30.7672 23.2525 30.7889 23.215 30.8537L22.9265 31.3514C22.8889 31.4162 22.9102 31.4997 22.9741 31.5378L25.0888 32.7998C25.1527 32.8379 25.2349 32.8163 25.2725 32.7515L25.561 32.2537C25.5985 32.1889 25.5772 32.1055 25.5134 32.0673Z" fill="#2E4661"/>
<g opacity="0.66">
<path d="M43.9877 13.0292C44.6716 11.8215 45.0968 10.3729 44.6687 8.99778C44.2589 7.6818 43.2131 6.74867 42.0098 6.1764C41.4053 5.88853 40.8688 6.80138 41.479 7.09215C42.4231 7.54104 43.3222 8.21699 43.6555 9.26422C44.0088 10.374 43.6355 11.5191 43.0858 12.4905C42.7508 13.083 43.6521 13.6229 43.9883 13.0292H43.9877Z" fill="white"/>
<path d="M43.1131 14.5398C42.9521 14.8178 42.5988 14.9105 42.3248 14.7471C42.0508 14.5838 41.9595 14.2252 42.1205 13.9472C42.2814 13.6692 42.6348 13.5765 42.9088 13.7399C43.1828 13.9032 43.2741 14.2617 43.1131 14.5398Z" fill="white"/>
</g>
</g>
<defs>
<clipPath id="clip0_57280_30127">
<rect width="32" height="50" fill="white" transform="translate(14 5)"/>
</clipPath>
</defs>
</svg>
