<svg width="24" height="24" viewBox="0 0 24 24" fill="none" xmlns="http://www.w3.org/2000/svg">
<path d="M24 0V24H0V0H24Z" fill="white" fill-opacity="0.01"/>
<path d="M15.1201 2C17.5283 2 18.7325 2.00009 19.6523 2.46875C20.4613 2.88098 21.119 3.5387 21.5312 4.34766C21.9999 5.26746 22 6.47174 22 8.87988V15.1201C22 17.5283 21.9999 18.7325 21.5312 19.6523C21.119 20.4613 20.4613 21.119 19.6523 21.5312C18.7325 21.9999 17.5283 22 15.1201 22H8.87988C6.47174 22 5.26746 21.9999 4.34766 21.5312C3.5387 21.119 2.88098 20.4613 2.46875 19.6523C2.00009 18.7325 2 17.5283 2 15.1201V8.87988C2 6.47174 2.00009 5.26746 2.46875 4.34766C2.88098 3.5387 3.5387 2.88098 4.34766 2.46875C5.26746 2.00009 6.47174 2 8.87988 2H15.1201ZM11.7139 4.85742C9.31409 4.85742 8.11395 4.85722 7.19727 5.32422C6.3909 5.73508 5.73511 6.39091 5.32422 7.19727C4.8571 8.11403 4.85742 9.31462 4.85742 11.7148V12.2861C4.85742 14.686 4.85727 15.886 5.32422 16.8027C5.73509 17.6091 6.39088 18.2649 7.19727 18.6758C8.11397 19.1429 9.31394 19.1436 11.7139 19.1436H12.2861C14.6861 19.1436 15.886 19.1429 16.8027 18.6758C17.6091 18.2649 18.2649 17.6091 18.6758 16.8027C19.1427 15.886 19.1426 14.686 19.1426 12.2861V11.7148C19.1426 9.31462 19.1429 8.11403 18.6758 7.19727C18.2649 6.39093 17.6091 5.73508 16.8027 5.32422C15.886 4.85724 14.6859 4.85742 12.2861 4.85742H11.7139ZM12.2861 6.28613C13.5096 6.28613 14.3415 6.28732 14.9844 6.33984C15.6106 6.39102 15.9309 6.48382 16.1543 6.59766C16.6918 6.87157 17.1294 7.30817 17.4033 7.8457C17.5171 8.06909 17.61 8.38957 17.6611 9.01562C17.7137 9.65861 17.7139 10.4912 17.7139 11.7148V12.2861C17.7139 13.5096 17.7137 14.3414 17.6611 14.9844C17.61 15.6103 17.5171 15.9309 17.4033 16.1543C17.1294 16.6919 16.6919 17.1294 16.1543 17.4033C15.9309 17.5171 15.6106 17.61 14.9844 17.6611C14.3415 17.7137 13.5096 17.7148 12.2861 17.7148H11.7139C10.4904 17.7148 9.65853 17.7137 9.01562 17.6611C8.38943 17.61 8.06911 17.5172 7.8457 17.4033C7.3081 17.1294 6.8706 16.6919 6.59668 16.1543C6.48293 15.9309 6.39099 15.6103 6.33984 14.9844C6.28732 14.3414 6.28613 13.5097 6.28613 12.2861V11.7148C6.28613 10.4912 6.28731 9.65861 6.33984 9.01562C6.39102 8.38962 6.48286 8.06908 6.59668 7.8457C6.87058 7.30818 7.30819 6.87158 7.8457 6.59766C8.06911 6.48383 8.38944 6.39102 9.01562 6.33984C9.65853 6.28732 10.4904 6.28613 11.7139 6.28613H12.2861ZM12 8.42871C10.0277 8.42873 8.42886 10.0277 8.42871 12C8.42871 13.9724 10.0276 15.5713 12 15.5713C13.9724 15.5713 15.5713 13.9724 15.5713 12C15.5711 10.0277 13.9724 8.42871 12 8.42871ZM12 9.85742C13.1834 9.85742 14.1424 10.8167 14.1426 12C14.1426 13.1835 13.1835 14.1436 12 14.1436C10.8165 14.1435 9.85742 13.1835 9.85742 12C9.85757 10.8167 10.8166 9.85744 12 9.85742ZM15.9287 7C15.3371 7 14.8576 7.47975 14.8574 8.07129C14.8574 8.66302 15.337 9.14355 15.9287 9.14355C16.5204 9.1435 17 8.66299 17 8.07129C16.9998 7.47978 16.5203 7.00006 15.9287 7Z" fill="white"/>
</svg>
