<svg width="20" height="20" viewBox="0 0 20 20" fill="none" xmlns="http://www.w3.org/2000/svg">
<path d="M3.33398 15H5.00065V16.6666H15.0007V3.33329H5.00065V4.99996H3.33398V2.49996C3.33398 2.27895 3.42178 2.06698 3.57806 1.9107C3.73434 1.75442 3.9463 1.66663 4.16732 1.66663H15.834C16.055 1.66663 16.267 1.75442 16.4232 1.9107C16.5795 2.06698 16.6673 2.27895 16.6673 2.49996V17.5C16.6673 17.721 16.5795 17.9329 16.4232 18.0892C16.267 18.2455 16.055 18.3333 15.834 18.3333H4.16732C3.9463 18.3333 3.73434 18.2455 3.57806 18.0892C3.42178 17.9329 3.33398 17.721 3.33398 17.5V15ZM5.00065 9.16663H10.834V10.8333H5.00065V13.3333L0.833984 9.99996L5.00065 6.66663V9.16663Z" fill="#B62E31"/>
</svg>
