<svg width="16" height="16" viewBox="0 0 16 16" fill="none" xmlns="http://www.w3.org/2000/svg">
<path d="M12.6667 6.66665H13.3333C13.5101 6.66665 13.6797 6.73688 13.8047 6.86191C13.9298 6.98693 14 7.1565 14 7.33331V14C14 14.1768 13.9298 14.3464 13.8047 14.4714C13.6797 14.5964 13.5101 14.6666 13.3333 14.6666H2.66667C2.48986 14.6666 2.32029 14.5964 2.19526 14.4714C2.07024 14.3464 2 14.1768 2 14V7.33331C2 7.1565 2.07024 6.98693 2.19526 6.86191C2.32029 6.73688 2.48986 6.66665 2.66667 6.66665H3.33333V5.99998C3.33333 5.38714 3.45404 4.78031 3.68856 4.21412C3.92308 3.64794 4.26683 3.13349 4.70017 2.70015C5.13351 2.26681 5.64796 1.92306 6.21414 1.68854C6.78033 1.45402 7.38716 1.33331 8 1.33331C8.61284 1.33331 9.21967 1.45402 9.78586 1.68854C10.352 1.92306 10.8665 2.26681 11.2998 2.70015C11.7332 3.13349 12.0769 3.64794 12.3114 4.21412C12.546 4.78031 12.6667 5.38714 12.6667 5.99998V6.66665ZM3.33333 7.99998V13.3333H12.6667V7.99998H3.33333ZM7.33333 9.33331H8.66667V12H7.33333V9.33331ZM11.3333 6.66665V5.99998C11.3333 5.11592 10.9821 4.26808 10.357 3.64296C9.7319 3.01784 8.88406 2.66665 8 2.66665C7.11595 2.66665 6.2681 3.01784 5.64298 3.64296C5.01786 4.26808 4.66667 5.11592 4.66667 5.99998V6.66665H11.3333Z" fill="#A7ACA1"/>
</svg>
