<svg width="20" height="20" viewBox="0 0 20 20" fill="none" xmlns="http://www.w3.org/2000/svg">
<path d="M14.166 4.99999H18.3327V6.66666H16.666V17.5C16.666 17.721 16.5782 17.933 16.4219 18.0892C16.2657 18.2455 16.0537 18.3333 15.8327 18.3333H4.16602C3.945 18.3333 3.73304 18.2455 3.57676 18.0892C3.42048 17.933 3.33268 17.721 3.33268 17.5V6.66666H1.66602V4.99999H5.83268V2.49999C5.83268 2.27898 5.92048 2.06701 6.07676 1.91073C6.23304 1.75445 6.445 1.66666 6.66602 1.66666H13.3327C13.5537 1.66666 13.7657 1.75445 13.9219 1.91073C14.0782 2.06701 14.166 2.27898 14.166 2.49999V4.99999ZM14.9993 6.66666H4.99935V16.6667H14.9993V6.66666ZM7.49935 9.16666H9.16602V14.1667H7.49935V9.16666ZM10.8327 9.16666H12.4993V14.1667H10.8327V9.16666ZM7.49935 3.33332V4.99999H12.4993V3.33332H7.49935Z" fill="#B62E31"/>
</svg>
