<svg width="20" height="20" viewBox="0 0 20 20" fill="none" xmlns="http://www.w3.org/2000/svg">
<path d="M4.16659 1.66667H15.8333C16.0543 1.66667 16.2662 1.75447 16.4225 1.91075C16.5788 2.06703 16.6666 2.27899 16.6666 2.50001V18.4525C16.6667 18.527 16.6468 18.6002 16.609 18.6644C16.5712 18.7286 16.5169 18.7815 16.4517 18.8176C16.3865 18.8537 16.3129 18.8716 16.2384 18.8695C16.1639 18.8675 16.0913 18.8455 16.0283 18.8058L9.99992 15.025L3.97159 18.805C3.90856 18.8446 3.83607 18.8666 3.76167 18.8687C3.68727 18.8708 3.61366 18.8529 3.5485 18.8169C3.48334 18.781 3.42901 18.7282 3.39115 18.6641C3.3533 18.6 3.33331 18.5269 3.33325 18.4525V2.50001C3.33325 2.27899 3.42105 2.06703 3.57733 1.91075C3.73361 1.75447 3.94557 1.66667 4.16659 1.66667ZM14.9999 3.33334H4.99992V16.1933L9.99992 13.0592L14.9999 16.1933V3.33334Z" fill="#D3D6D1"/>
</svg>
