<svg version="1.2" xmlns="http://www.w3.org/2000/svg" viewBox="0 0 60 60" width="60" height="60"><style>.a{fill:#414a56}.b{fill:#57606f}.c{fill:#2d2d2d}.d{fill:#fff}</style><path class="a" d="m45.7 46.5c0 1-0.5 1.8-1.1 2.5-0.6 0.6-1.5 1-2.4 1h-24.3c-2 0-3.5-1.5-3.5-3.5z"/><path class="a" d="m46.6 27.4v5.2h-33v-5.2z"/><path class="b" d="m46.6 32.6v5.5c0 4.6-4.6 8.4-10.1 8.4h-12.9c-5.6 0-10.1-3.7-10.1-8.4v-5.5z"/><path class="c" d="m48.2 11.8c2.4 2.4 2.4 6.2 0 8.6-1.7 1.7-4.1 2.2-6.3 1.5l-5.6 5.5h-8.6l10.2-10.3c-0.3-1.8 0.3-3.9 1.7-5.3 2.4-2.4 6.3-2.4 8.6 0z"/><path class="d" d="m36.8 43.1c-0.5 0-0.9-0.5-0.9-0.9 0-0.5 0.5-0.9 0.9-0.9 2.8 0 5.1-2.3 5.1-4.1 0-0.5 0.4-0.9 0.9-0.9 0.5 0 0.9 0.4 0.9 0.9-0.1 2.7-3 5.9-6.9 5.9z"/></svg>