<svg viewBox="0 0 59.132508490000006 72.84921800000001" id="svg1" xmlns="http://www.w3.org/2000/svg" style="max-height: 500px" width="59.132508490000006" height="72.84921800000001"><defs id="defs1"/><g transform="translate(0,-0.00600142)" id="g1"><g id="group-R5"><path transform="matrix(0.13333333,0,0,-0.13333333,0,70.053333)" style="fill:#131a22;fill-opacity:1;fill-rule:nonzero;stroke:none" d="m 589.641,430.063 c -3.567,0 -7.274,-0.274 -11.118,-0.844 -3.847,-0.559 -6.8,-1.035 -8.871,-1.406 v -90.938 -9.008 -8.449 c 0,-10.316 -2.859,-18.344 -8.586,-24.066 -5.722,-5.731 -13.093,-8.586 -22.101,-8.586 -9.008,0 -16.375,2.855 -22.102,8.586 -5.722,5.722 -8.586,13.75 -8.586,24.066 v 9.016 8.441 72.922 c 0,7.879 -1.828,13.23 -5.488,16.043 -3.656,2.82 -9.527,4.223 -17.594,4.223 -3.757,0 -7.507,-0.274 -11.265,-0.844 -3.75,-0.559 -6.664,-1.035 -8.727,-1.406 v -90.938 -8.441 -10.137 c 0,-13.332 2.957,-24.961 8.871,-34.91 5.914,-9.953 14.36,-17.696 25.336,-23.231 10.981,-5.535 24.168,-8.301 39.555,-8.301 15.387,0 28.621,2.766 39.695,8.301 11.078,5.535 19.524,13.278 25.344,23.231 5.816,9.949 8.723,21.578 8.723,34.91 v 9.57 9.008 72.922 c 0,7.879 -1.829,13.23 -5.485,16.043 -3.664,2.82 -9.531,4.223 -17.601,4.223" id="path2"/><path transform="matrix(0.13333333,0,0,-0.13333333,0,70.053333)" style="fill:#131a22;fill-opacity:1;fill-rule:nonzero;stroke:none" d="m 726.887,295.488 c -5.723,-6.566 -13.746,-9.851 -24.067,-9.851 -5.824,0 -11.031,1.129 -15.629,3.379 -1.265,0.621 -2.351,1.293 -3.515,1.941 v 66.75 c 2.433,1.5 5.39,2.77 8.863,3.805 3.473,1.031 7.367,1.551 11.688,1.551 6.378,0 11.914,-1.321 16.609,-3.942 4.691,-2.637 8.305,-6.715 10.836,-12.25 2.535,-5.539 3.801,-12.808 3.801,-21.816 0,-13.145 -2.86,-22.996 -8.586,-29.567 z m 15.765,93.051 c -11.168,4.969 -23.976,7.457 -38.425,7.457 -10.7,0 -20.368,-1.172 -28.997,-3.516 -8.636,-2.351 -15.765,-5.3 -21.402,-8.871 -3.941,-2.437 -6.855,-5.203 -8.726,-8.3 -1.879,-3.102 -2.817,-6.996 -2.817,-11.688 v -81.363 -10.695 -47.86 c 0,-7.508 1.836,-12.672 5.488,-15.488 3.665,-2.813 9.434,-4.227 17.321,-4.227 3.937,0 7.601,0.285 10.98,0.848 3.379,0.566 6,1.129 7.879,1.687 v 50.805 c 1.985,-0.773 3.985,-1.539 6.195,-2.238 5.629,-1.777 12.008,-2.676 19.149,-2.676 13.137,0 24.867,2.777 35.183,8.313 10.329,5.535 18.493,13.652 24.5,24.351 6,10.695 9.008,24.024 9.008,39.977 0,16.508 -3.097,29.98 -9.293,40.402 -6.191,10.414 -14.879,18.109 -26.043,23.082" id="path3"/><path transform="matrix(0.13333333,0,0,-0.13333333,0,70.053333)" style="fill:#131a22;fill-opacity:1;fill-rule:nonzero;stroke:none" d="m 867.238,361.09 -15.484,4.789 c -6.008,1.871 -10.516,3.984 -13.516,6.328 -3,2.344 -4.5,5.395 -4.5,9.152 0,4.692 2.25,8.493 6.75,11.407 4.508,2.906 11.266,4.363 20.274,4.363 8.629,0 16.515,-1.086 23.652,-3.242 7.133,-2.157 12.856,-4.742 17.172,-7.742 3,2.25 5.492,4.929 7.457,8.027 1.973,3.094 2.957,6.801 2.957,11.117 0,5.82 -2.387,10.742 -7.172,14.785 -4.793,4.031 -11.359,7.078 -19.715,9.145 -8.351,2.07 -17.875,3.101 -28.574,3.101 -21.023,0 -37.445,-4.601 -49.269,-13.797 -11.821,-9.199 -17.735,-21.585 -17.735,-37.164 0,-10.136 2.113,-18.488 6.336,-25.054 4.227,-6.571 10.227,-11.922 18.016,-16.051 7.785,-4.129 16.75,-7.879 26.886,-11.258 l 14.922,-4.785 c 6.758,-2.066 11.871,-4.559 15.344,-7.465 3.473,-2.914 5.207,-6.715 5.207,-11.402 0,-5.071 -2.207,-9.43 -6.613,-13.086 -4.414,-3.664 -11.688,-5.492 -21.817,-5.492 -9.578,0 -18.164,1.64 -25.765,4.922 -7.602,3.285 -13.938,6.992 -19.004,11.121 -3.563,-1.692 -6.805,-4.27 -9.707,-7.743 -2.914,-3.472 -4.371,-7.644 -4.371,-12.523 0,-6.199 2.679,-11.645 8.023,-16.336 5.356,-4.687 12.535,-8.258 21.543,-10.695 9.008,-2.434 19.238,-3.657 30.688,-3.657 23.082,0 40.726,4.922 52.925,14.778 12.196,9.859 18.301,22.668 18.301,38.433 0,14.637 -4.605,26.325 -13.793,35.047 -9.199,8.735 -22.343,15.715 -39.418,20.977" id="path4"/><path transform="matrix(0.13333333,0,0,-0.13333333,0,70.053333)" style="fill:#131a22;fill-opacity:1;fill-rule:nonzero;stroke:none" d="m 1042.07,293.238 c -3.38,-1.879 -7.37,-3.617 -11.97,-5.207 -4.6,-1.601 -9.99,-2.394 -16.19,-2.394 -10.51,0 -19.234,3.191 -26.183,9.578 -6.942,6.379 -10.414,15.851 -10.414,28.43 0,12.761 3.613,22.476 10.835,29.14 7.223,6.656 15.912,9.992 26.052,9.992 5.81,0 11.02,-0.8 15.62,-2.386 4.6,-1.606 8.68,-3.336 12.25,-5.215 2.06,2.066 3.89,4.457 5.49,7.179 1.59,2.723 2.39,5.774 2.39,9.153 0,6.941 -3.71,12.758 -11.12,17.457 -7.42,4.687 -17.6,7.031 -30.55,7.031 -13.139,0 -25.292,-2.672 -36.456,-8.023 -11.172,-5.344 -20.129,-13.325 -26.886,-23.93 -6.758,-10.602 -10.137,-24.066 -10.137,-40.398 0,-15.387 3.094,-28.43 9.293,-39.137 6.195,-10.695 14.922,-18.723 26.179,-24.067 11.262,-5.351 24.305,-8.027 39.137,-8.027 13.32,0 23.74,2.164 31.25,6.477 7.5,4.316 11.26,9.949 11.26,16.894 0,3.938 -0.85,7.274 -2.54,9.992 -1.68,2.723 -4.12,5.211 -7.31,7.461" id="path5"/><path transform="matrix(0.13333333,0,0,-0.13333333,0,70.053333)" style="fill:#131a22;fill-opacity:1;fill-rule:nonzero;stroke:none" d="m 1136.66,395.723 c -9.57,0 -18.72,-1.086 -27.44,-3.243 -8.74,-2.164 -16.19,-5.113 -22.39,-8.871 -4.51,-2.808 -8.03,-6.05 -10.56,-9.711 -2.53,-3.656 -3.8,-8.121 -3.8,-13.371 v -29.558 -10.703 -46.172 c 0,-7.317 1.83,-12.387 5.49,-15.203 3.66,-2.813 9.43,-4.227 17.32,-4.227 3.94,0 7.6,0.242 10.98,0.707 3.38,0.477 6,0.984 7.88,1.555 v 63.34 9.859 25.332 c 3.94,2.25 8.73,4.035 14.36,5.356 5.63,1.308 11.26,1.964 16.89,1.964 3.19,0 6.15,-0.136 8.87,-0.422 2.72,-0.277 5.02,-0.613 6.9,-0.984 1.12,1.871 2.11,4.129 2.96,6.758 0.84,2.621 1.26,5.441 1.26,8.449 0,12.758 -9.57,19.145 -28.72,19.145" id="path6"/><path transform="matrix(0.13333333,0,0,-0.13333333,0,70.053333)" style="fill:#131a22;fill-opacity:1;fill-rule:nonzero;stroke:none" d="m 1261.95,295.488 c -5.07,-6.758 -12.11,-10.136 -21.12,-10.136 -9.01,0 -16.05,3.336 -21.11,10 -5.07,6.664 -7.6,16.285 -7.6,28.859 0,12.387 2.58,21.957 7.74,28.715 5.16,6.758 12.15,10.137 20.97,10.137 9.01,0 16.05,-3.43 21.12,-10.278 5.07,-6.851 7.6,-16.379 7.6,-28.574 0,-12.387 -2.53,-21.965 -7.6,-28.723 z m 16.33,91.641 c -10.7,5.914 -23.18,8.867 -37.45,8.867 -14.07,0 -26.51,-2.953 -37.3,-8.867 -10.8,-5.906 -19.19,-14.172 -25.2,-24.774 -6.01,-10.601 -9.01,-23.324 -9.01,-38.144 0,-14.832 2.96,-27.645 8.87,-38.434 5.91,-10.793 14.26,-19.05 25.06,-24.773 10.79,-5.727 23.32,-8.59 37.58,-8.59 14.46,0 27.03,2.914 37.73,8.734 10.7,5.809 19,14.122 24.91,24.911 5.92,10.793 8.87,23.507 8.87,38.152 0,14.449 -3,27.066 -9.01,37.867 -6,10.785 -14.36,19.145 -25.05,25.051" id="path7"/><path transform="matrix(0.13333333,0,0,-0.13333333,0,70.053333)" style="fill:#131a22;fill-opacity:1;fill-rule:nonzero;stroke:none" d="m 1353.16,442.449 c -3.94,0 -7.6,-0.273 -10.98,-0.844 -3.38,-0.558 -6.01,-1.121 -7.88,-1.687 v -108.949 -21.68 -35.195 c 0,-7.317 1.87,-12.387 5.63,-15.203 3.75,-2.813 9.57,-4.227 17.45,-4.227 3.94,0 7.61,0.242 10.98,0.707 3.38,0.477 6,0.984 7.89,1.555 v 51.519 21.68 92.621 c 0,7.508 -1.83,12.672 -5.5,15.488 -3.65,2.813 -9.52,4.215 -17.59,4.215" id="path8"/><path transform="matrix(0.13333333,0,0,-0.13333333,0,70.053333)" style="fill:#131a22;fill-opacity:1;fill-rule:nonzero;stroke:none" d="m 1425.23,442.449 c -3.95,0 -7.6,-0.273 -10.98,-0.844 -3.38,-0.558 -6.02,-1.121 -7.88,-1.687 v -108.949 -21.68 -35.195 c 0,-7.317 1.86,-12.387 5.62,-15.203 3.76,-2.813 9.58,-4.227 17.46,-4.227 3.95,0 7.62,0.242 11,0.707 3.38,0.477 6,0.984 7.86,1.555 v 51.519 21.68 92.621 c 0,7.508 -1.83,12.672 -5.47,15.488 -3.67,2.813 -9.53,4.215 -17.61,4.215" id="path9"/><path transform="matrix(0.13333333,0,0,-0.13333333,0,70.053333)" style="fill:#131a22;fill-opacity:1;fill-rule:nonzero;stroke:none" d="m 1509.44,335.008 c 0.81,9.055 3.63,16.269 8.7,21.433 5.62,5.723 12.67,8.594 21.11,8.594 8.07,0 14.16,-2.258 18.3,-6.758 4.13,-4.507 6.38,-9.386 6.75,-14.644 z m 63.46,53.25 c -9.67,5.164 -20.97,7.738 -33.94,7.738 -8.82,0 -17.3,-1.402 -25.46,-4.223 -8.18,-2.808 -15.49,-7.085 -21.96,-12.808 -6.49,-5.723 -11.65,-12.996 -15.49,-21.817 -3.85,-8.828 -5.77,-19.238 -5.77,-31.25 0,-16.332 3.29,-29.941 9.84,-40.82 6.59,-10.887 15.65,-19.051 27.18,-24.5 11.54,-5.437 24.53,-8.164 39,-8.164 9.94,0 18.82,0.941 26.6,2.82 7.78,1.871 13.89,4.692 18.29,8.45 4.43,3.75 6.61,8.437 6.61,14.074 0,3.379 -0.87,6.562 -2.65,9.57 -1.8,3 -4.11,5.352 -6.9,7.039 -4.34,-2.445 -9.96,-4.789 -16.9,-7.039 -6.96,-2.25 -14.36,-3.379 -22.25,-3.379 -9.76,0 -18.21,2.203 -25.34,6.617 -5.69,3.512 -9.56,8.993 -11.79,16.266 l 73.74,10.898 c 5.63,0.75 10.02,2.629 13.23,5.637 3.2,3 4.78,7.41 4.78,13.231 0,11.636 -2.71,21.863 -8.16,30.687 -5.45,8.817 -12.99,15.809 -22.66,20.973" id="path10"/><path transform="matrix(0.13333333,0,0,-0.13333333,0,70.053333)" style="fill:#131a22;fill-opacity:1;fill-rule:nonzero;stroke:none" d="m 1703.66,286.906 c -3.18,-1.035 -6.85,-1.554 -10.99,-1.554 -10.13,0 -18.14,3.105 -24.06,9.293 -5.91,6.199 -8.88,15.863 -8.88,29 0,9.011 1.43,16.418 4.22,22.246 2.83,5.808 6.76,10.129 11.83,12.945 5.07,2.82 10.89,4.227 17.48,4.227 5.62,0 10.6,-0.942 14.91,-2.821 1.14,-0.496 2.07,-1.039 3.09,-1.562 v -68.535 c -1.87,-1.129 -4.4,-2.215 -7.6,-3.239 z m 43.92,151.328 c -3.55,2.813 -9.47,4.215 -17.74,4.215 -3.93,0 -7.6,-0.273 -10.98,-0.844 -3.38,-0.558 -5.91,-1.121 -7.6,-1.687 v -48.102 c -1.77,0.676 -3.57,1.34 -5.62,1.93 -5.28,1.5 -11.28,2.25 -18.03,2.25 -12.94,0 -24.76,-2.629 -35.45,-7.879 -10.72,-5.258 -19.2,-13.187 -25.49,-23.789 -6.29,-10.609 -9.44,-24.168 -9.44,-40.683 0,-15.766 3.06,-28.957 9.15,-39.559 6.09,-10.602 14.82,-18.531 26.18,-23.781 11.36,-5.258 24.82,-7.891 40.41,-7.891 10.69,0 20.12,1.27 28.28,3.805 8.18,2.535 14.8,5.488 19.86,8.867 4.11,2.434 7.14,5.207 9.01,8.305 1.86,3.101 2.82,6.902 2.82,11.402 v 81.93 8.164 47.859 c 0,7.508 -1.8,12.672 -5.36,15.488" id="path11"/><path transform="matrix(0.13333333,0,0,-0.13333333,0,70.053333)" style="fill:#ed0c6f;fill-opacity:1;fill-rule:nonzero;stroke:none" d="m 282.766,395.398 c 10,0 19.75,-1.058 29.168,-3.027 V 525.355 H 0 V 369.391 C 0,292.195 56.1367,228.27 129.777,215.789 v 179.609 h 152.989" id="path12"/><path transform="matrix(0.13333333,0,0,-0.13333333,0,70.053333)" style="fill:#4086ce;fill-opacity:1;fill-rule:nonzero;stroke:none" d="m 311.934,392.371 v -22.98 c 0,-86.141 -69.829,-155.969 -155.965,-155.969 -8.946,0 -17.66,0.922 -26.192,2.367 V 0 l 89.477,111.316 h 63.512 c 78.445,0 142.039,63.594 142.039,142.039 0,68.446 -48.422,125.559 -112.871,139.016" id="path13"/><path transform="matrix(0.13333333,0,0,-0.13333333,0,70.053333)" style="fill:#1e2151;fill-opacity:1;fill-rule:nonzero;stroke:none" d="m 311.934,369.391 v 22.98 c -9.418,1.969 -19.168,3.027 -29.168,3.027 H 129.777 V 215.789 c 8.532,-1.445 17.246,-2.367 26.192,-2.367 86.136,0 155.965,69.828 155.965,155.969" id="path14"/></g></g></svg>