<svg width="16" height="16" viewBox="0 0 16 16" fill="none" xmlns="http://www.w3.org/2000/svg">
<g clip-path="url(#clip0_59175_3840)">
<path d="M2.66669 14.6666C2.66669 13.2521 3.22859 11.8956 4.22878 10.8954C5.22898 9.8952 6.58553 9.33329 8.00002 9.33329C9.41451 9.33329 10.7711 9.8952 11.7713 10.8954C12.7715 11.8956 13.3334 13.2521 13.3334 14.6666H12C12 13.6058 11.5786 12.5883 10.8284 11.8382C10.0783 11.0881 9.06089 10.6666 8.00002 10.6666C6.93915 10.6666 5.92174 11.0881 5.17159 11.8382C4.42145 12.5883 4.00002 13.6058 4.00002 14.6666H2.66669ZM8.00002 8.66663C5.79002 8.66663 4.00002 6.87663 4.00002 4.66663C4.00002 2.45663 5.79002 0.666626 8.00002 0.666626C10.21 0.666626 12 2.45663 12 4.66663C12 6.87663 10.21 8.66663 8.00002 8.66663ZM8.00002 7.33329C9.47335 7.33329 10.6667 6.13996 10.6667 4.66663C10.6667 3.19329 9.47335 1.99996 8.00002 1.99996C6.52669 1.99996 5.33335 3.19329 5.33335 4.66663C5.33335 6.13996 6.52669 7.33329 8.00002 7.33329Z" fill="#41463B"/>
</g>
<defs>
<clipPath id="clip0_59175_3840">
<rect width="16" height="16" fill="white"/>
</clipPath>
</defs>
</svg>
