<svg width="20" height="14" viewBox="0 0 20 14" fill="none" xmlns="http://www.w3.org/2000/svg">
<path d="M9.98853 0C10.0438 8.39911e-06 16.2406 0.00154249 17.7854 0.422852C18.2091 0.537571 18.5951 0.76187 18.9055 1.07227C19.216 1.38276 19.4402 1.7695 19.5549 2.19336C20.2152 4.85163 20.0626 9.04967 19.5676 11.8105C19.4529 12.2344 19.2287 12.6211 18.9182 12.9316C18.6078 13.242 18.2218 13.4664 17.7981 13.5811C16.253 14.0025 10.0537 14.0039 10.0012 14.0039C10.0012 14.0039 3.7551 14.0043 2.20337 13.5811C1.77966 13.4663 1.39365 13.242 1.08325 12.9316C0.772767 12.6211 0.548532 12.2344 0.433838 11.8105C-0.230323 9.16377 -0.048159 4.96301 0.421143 2.20605C0.535825 1.78218 0.760071 1.39547 1.07056 1.08496C1.38098 0.774589 1.76696 0.55025 2.19067 0.435547C3.7424 0.0123482 9.98853 0 9.98853 0ZM8.00024 10.0029L13.1809 7.00195L8.00024 4.00098V10.0029Z" fill="white"/>
</svg>
